<?xml version="1.0" encoding="UTF-8" standalone="no"?>
<svg
   xmlns:dc="http://purl.org/dc/elements/1.1/"
   xmlns:cc="http://creativecommons.org/ns#"
   xmlns:rdf="http://www.w3.org/1999/02/22-rdf-syntax-ns#"
   xmlns:svg="http://www.w3.org/2000/svg"
   xmlns="http://www.w3.org/2000/svg"
   xmlns:sodipodi="http://sodipodi.sourceforge.net/DTD/sodipodi-0.dtd"
   xmlns:inkscape="http://www.inkscape.org/namespaces/inkscape"
   width="256"
   height="256"
   viewBox="0 0 67.733334 67.733334"
   version="1.1"
   id="svg8"
   inkscape:version="1.0.1 (3bc2e813f5, 2020-09-07)"
   sodipodi:docname="logo v1.svg">
  <defs
     id="defs2" />
  <sodipodi:namedview
     id="base"
     pagecolor="#ffffff"
     bordercolor="#666666"
     borderopacity="1.0"
     inkscape:pageopacity="0.0"
     inkscape:pageshadow="2"
     inkscape:zoom="0.98994949"
     inkscape:cx="107.38782"
     inkscape:cy="45.61421"
     inkscape:document-units="mm"
     inkscape:current-layer="layer1"
     inkscape:document-rotation="0"
     showgrid="false"
     units="px"
     inkscape:pagecheckerboard="true"
     inkscape:window-width="1920"
     inkscape:window-height="1017"
     inkscape:window-x="1912"
     inkscape:window-y="-8"
     inkscape:window-maximized="1" />
  <metadata
     id="metadata5">
    <rdf:RDF>
      <cc:Work
         rdf:about="">
        <dc:format>image/svg+xml</dc:format>
        <dc:type
           rdf:resource="http://purl.org/dc/dcmitype/StillImage" />
        <dc:title></dc:title>
      </cc:Work>
    </rdf:RDF>
  </metadata>
  <g
     inkscape:label="Layer 1"
     inkscape:groupmode="layer"
     id="layer1"
     style="display:inline">
    <g
       id="g1449"
       transform="translate(-0.2861997,-0.47923101)">
      <circle
         style="fill:none;stroke:#202020;stroke-width:2.62244;stroke-miterlimit:4;stroke-dasharray:none;stroke-opacity:1"
         id="path1416"
         cx="34.152866"
         cy="34.345898"
         r="29.861376" />
      <path
         style="fill:#202020;fill-opacity:1;stroke:none;stroke-width:0.317699px;stroke-linecap:butt;stroke-linejoin:miter;stroke-opacity:1"
         d="m 7.0803264,45.550484 c 0,0 0,0 8.8501976,-3.744316 2.653079,5.302232 6.013606,7.715561 6.013606,7.715561 l -6.353996,7.715559 c 0,0 -3.063533,1.248109 -8.5098076,-11.686804 z"
         id="path1420"
         sodipodi:nodetypes="ccccc" />
      <path
         style="fill:#202020;fill-opacity:1;stroke:none;stroke-width:0.317699px;stroke-linecap:butt;stroke-linejoin:miter;stroke-opacity:1"
         d="m 24.213412,50.883299 2.269282,1.134642 -4.311634,9.190595 -3.517394,-1.815425 z"
         id="path1422" />
      <path
         style="fill:#202020;fill-opacity:1;stroke:none;stroke-width:0.317699px;stroke-linecap:butt;stroke-linejoin:miter;stroke-opacity:1"
         d="m 46.90624,7.5399956 -2.836603,5.5597434 2.723138,1.588498 2.950069,-5.332816 z"
         id="path1432" />
      <path
         style="fill:#202020;fill-opacity:1;stroke:none;stroke-width:0.317699px;stroke-linecap:butt;stroke-linejoin:miter;stroke-opacity:1"
         d="m 53.48716,11.965098 -4.198172,4.538565 c 0,0 3.290458,3.744317 5.786671,9.417524 6.127061,-2.269282 6.127061,-2.269282 6.127061,-2.269282 0,0 -1.134638,-7.261706 -7.71556,-11.686807 z"
         id="path1434"
         sodipodi:nodetypes="ccccc" />
      <path
         style="fill:#2e5ec2;fill-opacity:1;stroke:#000000;stroke-width:0.317699px;stroke-linecap:butt;stroke-linejoin:miter;stroke-opacity:1"
         d="m 22.624909,46.00434 c 0,0 0,0 3.744325,-4.992422 C 23.19223,28.530861 34.538648,22.403799 43.842707,27.509684 l 6.807849,-6.353991 C 34.760401,5.566369 6.2860753,23.084584 22.624909,46.00434 Z"
         id="path1436"
         sodipodi:nodetypes="ccccc" />
      <path
         style="fill:#ec2546;fill-opacity:1;stroke:#000000;stroke-width:0.317699px;stroke-linecap:butt;stroke-linejoin:miter;stroke-opacity:1"
         d="m 47.246632,51.791013 -3.290459,-12.254129 -4.538567,-1.021178 -0.453856,-1.815425 7.034776,1.92889 c 0.146102,0.934783 0.116186,1.825562 -0.340392,2.609677 0,0 0,0 1.92889,2.950067 1.021178,-6.127064 -1.588498,-13.332038 -2.779871,-15.147464 -1.304838,1.92889 0,0 -1.304838,1.92889 -9.809481,-8.596651 -18.84579,3.39155 -15.374396,9.247328 2.927224,4.937817 -1.98355,8.662477 -2.042351,8.623276 -0.07865,0.01747 4.563851,0.467145 6.807849,-2.496211 0,0 -1.019783,-1.281751 0.05674,-1.985624 1.708682,-1.117208 3.0068,0.51059 3.347192,1.418302 0.340391,0.907713 1.07791,1.475034 1.872159,1.815427 0.794248,0.340391 9.077132,4.198174 9.077132,4.198174 z"
         id="path1440"
         sodipodi:nodetypes="cccccccccsccsssc" />
      <text
         xml:space="preserve"
         style="font-style:normal;font-weight:normal;font-size:10.5833px;line-height:1.25;font-family:sans-serif;fill:#000000;fill-opacity:1;stroke:none;stroke-width:0.264583"
         x="7.7697463"
         y="63.287571"
         id="text1453"><tspan
           sodipodi:role="line"
           id="tspan1451"
           x="7.7697463"
           y="63.287571"
           style="stroke-width:0.264583"></tspan></text>
    </g>
    <g
       id="g1470"
       transform="translate(3.6030596,24.833521)">
      <rect
         style="fill:#202020;fill-opacity:1;stroke:#202020;stroke-width:4.62241;stroke-miterlimit:4;stroke-dasharray:none;stroke-opacity:1"
         id="rect1463"
         width="37.751904"
         height="6.2383504"
         x="11.387655"
         y="32.484741" />
      <text
         xml:space="preserve"
         style="font-style:italic;font-weight:bold;font-size:9.62184px;line-height:1.25;font-family:'Times New Roman';-inkscape-font-specification:'Times New Roman, Bold Italic';fill:#ffffff;stroke-width:0.200771;stroke-miterlimit:4;stroke-dasharray:none"
         x="10.742731"
         y="38.789272"
         id="text1459"><tspan
           sodipodi:role="line"
           id="tspan1457"
           x="10.742731"
           y="38.789272"
           style="font-size:9.62184px;fill:#ffffff;stroke-width:0.200771;stroke-miterlimit:4;stroke-dasharray:none"><tspan
   style="font-style:normal;font-variant:normal;font-weight:normal;font-stretch:normal;font-family:'Times New Roman';-inkscape-font-specification:'Times New Roman, ';fill:#ffffff;stroke-width:0.200771;stroke-miterlimit:4;stroke-dasharray:none"
   id="tspan1461">ROM</tspan>ulus</tspan></text>
    </g>
  </g>
  <g
     inkscape:groupmode="layer"
     id="layer3"
     inkscape:label="Layer 2" />
</svg>
